<mxfile host="app.diagrams.net" modified="2024-06-11T13:44:09.781Z" agent="Mozilla/5.0 (Windows NT 10.0; Win64; x64) AppleWebKit/537.36 (KHTML, like Gecko) Chrome/125.0.0.0 Safari/537.36" etag="0tmsS53N-sfMMDrHRtag" version="24.5.3" type="device">
  <diagram name="Page-1" id="8Iks-81rQAI23J6elJiz">
    <mxGraphModel dx="1613" dy="653" grid="1" gridSize="10" guides="1" tooltips="1" connect="1" arrows="1" fold="1" page="1" pageScale="1" pageWidth="827" pageHeight="1169" math="0" shadow="0">
      <root>
        <mxCell id="0" />
        <mxCell id="1" parent="0" />
        <mxCell id="YBJWxwVIaJy569N44Aqp-1" value="API" style="ellipse;whiteSpace=wrap;html=1;" vertex="1" parent="1">
          <mxGeometry y="250" width="120" height="80" as="geometry" />
        </mxCell>
        <mxCell id="YBJWxwVIaJy569N44Aqp-2" value="ClientHttp" style="ellipse;whiteSpace=wrap;html=1;" vertex="1" parent="1">
          <mxGeometry x="126" y="130" width="120" height="80" as="geometry" />
        </mxCell>
        <mxCell id="YBJWxwVIaJy569N44Aqp-3" value="" style="endArrow=classic;html=1;rounded=0;exitX=0.5;exitY=0;exitDx=0;exitDy=0;entryX=0;entryY=1;entryDx=0;entryDy=0;" edge="1" parent="1" source="YBJWxwVIaJy569N44Aqp-1" target="YBJWxwVIaJy569N44Aqp-2">
          <mxGeometry relative="1" as="geometry">
            <mxPoint x="146" y="179.05" as="sourcePoint" />
            <mxPoint x="246" y="179.05" as="targetPoint" />
          </mxGeometry>
        </mxCell>
        <mxCell id="YBJWxwVIaJy569N44Aqp-4" value="JSON" style="edgeLabel;resizable=0;html=1;;align=center;verticalAlign=middle;" connectable="0" vertex="1" parent="YBJWxwVIaJy569N44Aqp-3">
          <mxGeometry relative="1" as="geometry" />
        </mxCell>
        <mxCell id="YBJWxwVIaJy569N44Aqp-5" value="" style="endArrow=classic;html=1;rounded=0;exitX=0.5;exitY=1;exitDx=0;exitDy=0;" edge="1" parent="1" source="YBJWxwVIaJy569N44Aqp-2" target="YBJWxwVIaJy569N44Aqp-1">
          <mxGeometry relative="1" as="geometry">
            <mxPoint x="122" y="202" as="sourcePoint" />
            <mxPoint x="274" y="202" as="targetPoint" />
          </mxGeometry>
        </mxCell>
        <mxCell id="YBJWxwVIaJy569N44Aqp-6" value="fetch()" style="edgeLabel;resizable=0;html=1;;align=center;verticalAlign=middle;" connectable="0" vertex="1" parent="YBJWxwVIaJy569N44Aqp-5">
          <mxGeometry relative="1" as="geometry" />
        </mxCell>
        <mxCell id="YBJWxwVIaJy569N44Aqp-7" value="API" style="ellipse;whiteSpace=wrap;html=1;" vertex="1" parent="1">
          <mxGeometry y="30" width="120" height="80" as="geometry" />
        </mxCell>
        <mxCell id="YBJWxwVIaJy569N44Aqp-8" value="" style="endArrow=classic;html=1;rounded=0;exitX=1;exitY=1;exitDx=0;exitDy=0;entryX=0.5;entryY=0;entryDx=0;entryDy=0;" edge="1" parent="1" source="YBJWxwVIaJy569N44Aqp-7" target="YBJWxwVIaJy569N44Aqp-2">
          <mxGeometry relative="1" as="geometry">
            <mxPoint x="122" y="202" as="sourcePoint" />
            <mxPoint x="274" y="202" as="targetPoint" />
          </mxGeometry>
        </mxCell>
        <mxCell id="YBJWxwVIaJy569N44Aqp-9" value="HTML + JSON" style="edgeLabel;resizable=0;html=1;;align=center;verticalAlign=middle;" connectable="0" vertex="1" parent="YBJWxwVIaJy569N44Aqp-8">
          <mxGeometry relative="1" as="geometry">
            <mxPoint x="-6" as="offset" />
          </mxGeometry>
        </mxCell>
        <mxCell id="YBJWxwVIaJy569N44Aqp-10" value="" style="endArrow=classic;html=1;rounded=0;exitX=0;exitY=0;exitDx=0;exitDy=0;entryX=0.5;entryY=1;entryDx=0;entryDy=0;" edge="1" parent="1" source="YBJWxwVIaJy569N44Aqp-2" target="YBJWxwVIaJy569N44Aqp-7">
          <mxGeometry relative="1" as="geometry">
            <mxPoint x="256" y="230" as="sourcePoint" />
            <mxPoint x="140" y="230" as="targetPoint" />
          </mxGeometry>
        </mxCell>
        <mxCell id="YBJWxwVIaJy569N44Aqp-11" value="?" style="edgeLabel;resizable=0;html=1;;align=center;verticalAlign=middle;" connectable="0" vertex="1" parent="YBJWxwVIaJy569N44Aqp-10">
          <mxGeometry relative="1" as="geometry" />
        </mxCell>
        <mxCell id="YBJWxwVIaJy569N44Aqp-12" value="ServeurHttp" style="ellipse;whiteSpace=wrap;html=1;" vertex="1" parent="1">
          <mxGeometry x="320" y="130" width="120" height="80" as="geometry" />
        </mxCell>
        <mxCell id="YBJWxwVIaJy569N44Aqp-13" value="" style="endArrow=classic;html=1;rounded=0;exitX=1;exitY=0;exitDx=0;exitDy=0;entryX=0;entryY=0;entryDx=0;entryDy=0;" edge="1" parent="1" source="YBJWxwVIaJy569N44Aqp-2" target="YBJWxwVIaJy569N44Aqp-12">
          <mxGeometry relative="1" as="geometry">
            <mxPoint x="316" y="110" as="sourcePoint" />
            <mxPoint x="316" y="190" as="targetPoint" />
          </mxGeometry>
        </mxCell>
        <mxCell id="YBJWxwVIaJy569N44Aqp-14" value="fetch()" style="edgeLabel;resizable=0;html=1;;align=center;verticalAlign=middle;" connectable="0" vertex="1" parent="YBJWxwVIaJy569N44Aqp-13">
          <mxGeometry relative="1" as="geometry">
            <mxPoint y="5" as="offset" />
          </mxGeometry>
        </mxCell>
        <mxCell id="YBJWxwVIaJy569N44Aqp-15" value="" style="endArrow=classic;html=1;rounded=0;exitX=0;exitY=0.5;exitDx=0;exitDy=0;entryX=1;entryY=0.5;entryDx=0;entryDy=0;" edge="1" parent="1" source="YBJWxwVIaJy569N44Aqp-12" target="YBJWxwVIaJy569N44Aqp-2">
          <mxGeometry relative="1" as="geometry">
            <mxPoint x="122" y="202" as="sourcePoint" />
            <mxPoint x="390" y="290" as="targetPoint" />
          </mxGeometry>
        </mxCell>
        <mxCell id="YBJWxwVIaJy569N44Aqp-16" value="JSON" style="edgeLabel;resizable=0;html=1;;align=center;verticalAlign=middle;" connectable="0" vertex="1" parent="YBJWxwVIaJy569N44Aqp-15">
          <mxGeometry relative="1" as="geometry" />
        </mxCell>
        <mxCell id="YBJWxwVIaJy569N44Aqp-17" value="ClientHttp" style="ellipse;whiteSpace=wrap;html=1;" vertex="1" parent="1">
          <mxGeometry x="520" y="130" width="120" height="80" as="geometry" />
        </mxCell>
        <mxCell id="YBJWxwVIaJy569N44Aqp-18" value="" style="endArrow=classic;html=1;rounded=0;exitX=0;exitY=1;exitDx=0;exitDy=0;entryX=1;entryY=1;entryDx=0;entryDy=0;" edge="1" parent="1" source="YBJWxwVIaJy569N44Aqp-17" target="YBJWxwVIaJy569N44Aqp-12">
          <mxGeometry relative="1" as="geometry">
            <mxPoint x="330" y="180" as="sourcePoint" />
            <mxPoint x="256" y="180" as="targetPoint" />
          </mxGeometry>
        </mxCell>
        <mxCell id="YBJWxwVIaJy569N44Aqp-19" value="JSON" style="edgeLabel;resizable=0;html=1;;align=center;verticalAlign=middle;" connectable="0" vertex="1" parent="YBJWxwVIaJy569N44Aqp-18">
          <mxGeometry relative="1" as="geometry" />
        </mxCell>
        <mxCell id="YBJWxwVIaJy569N44Aqp-20" value="" style="endArrow=classic;html=1;rounded=0;exitX=1;exitY=0.5;exitDx=0;exitDy=0;entryX=0;entryY=0.5;entryDx=0;entryDy=0;" edge="1" parent="1" source="YBJWxwVIaJy569N44Aqp-12" target="YBJWxwVIaJy569N44Aqp-17">
          <mxGeometry relative="1" as="geometry">
            <mxPoint x="154" y="152" as="sourcePoint" />
            <mxPoint x="70" y="120" as="targetPoint" />
          </mxGeometry>
        </mxCell>
        <mxCell id="YBJWxwVIaJy569N44Aqp-21" value="?" style="edgeLabel;resizable=0;html=1;;align=center;verticalAlign=middle;" connectable="0" vertex="1" parent="YBJWxwVIaJy569N44Aqp-20">
          <mxGeometry relative="1" as="geometry" />
        </mxCell>
        <mxCell id="YBJWxwVIaJy569N44Aqp-22" value="API&amp;nbsp;&lt;div&gt;(données bloquées)&lt;/div&gt;" style="ellipse;whiteSpace=wrap;html=1;" vertex="1" parent="1">
          <mxGeometry x="740" y="130" width="120" height="80" as="geometry" />
        </mxCell>
        <mxCell id="YBJWxwVIaJy569N44Aqp-23" value="" style="endArrow=classic;html=1;rounded=0;exitX=0;exitY=0.5;exitDx=0;exitDy=0;entryX=1;entryY=0.5;entryDx=0;entryDy=0;" edge="1" parent="1" source="YBJWxwVIaJy569N44Aqp-22" target="YBJWxwVIaJy569N44Aqp-17">
          <mxGeometry relative="1" as="geometry">
            <mxPoint x="736" y="140" as="sourcePoint" />
            <mxPoint x="620" y="140" as="targetPoint" />
          </mxGeometry>
        </mxCell>
        <mxCell id="YBJWxwVIaJy569N44Aqp-24" value="JSON" style="edgeLabel;resizable=0;html=1;;align=center;verticalAlign=middle;" connectable="0" vertex="1" parent="YBJWxwVIaJy569N44Aqp-23">
          <mxGeometry relative="1" as="geometry" />
        </mxCell>
        <mxCell id="YBJWxwVIaJy569N44Aqp-25" value="" style="endArrow=classic;html=1;rounded=0;exitX=1;exitY=0;exitDx=0;exitDy=0;entryX=0;entryY=0;entryDx=0;entryDy=0;" edge="1" parent="1" source="YBJWxwVIaJy569N44Aqp-17" target="YBJWxwVIaJy569N44Aqp-22">
          <mxGeometry relative="1" as="geometry">
            <mxPoint x="638" y="170" as="sourcePoint" />
            <mxPoint x="718" y="170" as="targetPoint" />
          </mxGeometry>
        </mxCell>
        <mxCell id="YBJWxwVIaJy569N44Aqp-26" value="GET" style="edgeLabel;resizable=0;html=1;;align=center;verticalAlign=middle;" connectable="0" vertex="1" parent="YBJWxwVIaJy569N44Aqp-25">
          <mxGeometry relative="1" as="geometry" />
        </mxCell>
        <mxCell id="YBJWxwVIaJy569N44Aqp-30" value="" style="endArrow=classic;html=1;rounded=0;entryX=1;entryY=0;entryDx=0;entryDy=0;exitX=0;exitY=0;exitDx=0;exitDy=0;" edge="1" parent="1" source="YBJWxwVIaJy569N44Aqp-37" target="YBJWxwVIaJy569N44Aqp-36">
          <mxGeometry width="50" height="50" relative="1" as="geometry">
            <mxPoint x="524.9845054927182" y="327.4413679901355" as="sourcePoint" />
            <mxPoint x="412.7444759102875" y="307.44136799013575" as="targetPoint" />
          </mxGeometry>
        </mxCell>
        <mxCell id="YBJWxwVIaJy569N44Aqp-31" value="" style="endArrow=classic;html=1;rounded=0;entryX=0;entryY=0.5;entryDx=0;entryDy=0;exitX=1;exitY=0.5;exitDx=0;exitDy=0;" edge="1" parent="1" source="YBJWxwVIaJy569N44Aqp-36" target="YBJWxwVIaJy569N44Aqp-37">
          <mxGeometry width="50" height="50" relative="1" as="geometry">
            <mxPoint x="426" y="325" as="sourcePoint" />
            <mxPoint x="510" y="345" as="targetPoint" />
          </mxGeometry>
        </mxCell>
        <mxCell id="YBJWxwVIaJy569N44Aqp-32" value="" style="endArrow=classic;html=1;rounded=0;exitX=0;exitY=1;exitDx=0;exitDy=0;entryX=1;entryY=0.5;entryDx=0;entryDy=0;" edge="1" parent="1" source="YBJWxwVIaJy569N44Aqp-38">
          <mxGeometry width="50" height="50" relative="1" as="geometry">
            <mxPoint x="524.9845054927182" y="362.5586320098646" as="sourcePoint" />
            <mxPoint x="810" y="365" as="targetPoint" />
          </mxGeometry>
        </mxCell>
        <mxCell id="YBJWxwVIaJy569N44Aqp-33" value="" style="endArrow=classic;html=1;rounded=0;exitX=0;exitY=1;exitDx=0;exitDy=0;entryX=1;entryY=1;entryDx=0;entryDy=0;" edge="1" parent="1" source="YBJWxwVIaJy569N44Aqp-38" target="YBJWxwVIaJy569N44Aqp-37">
          <mxGeometry width="50" height="50" relative="1" as="geometry">
            <mxPoint x="792.7101859699403" y="347.4413679901354" as="sourcePoint" />
            <mxPoint x="510" y="345" as="targetPoint" />
          </mxGeometry>
        </mxCell>
        <mxCell id="YBJWxwVIaJy569N44Aqp-34" value="" style="endArrow=classic;html=1;rounded=0;entryX=0.251;entryY=0.938;entryDx=0;entryDy=0;exitX=0;exitY=0;exitDx=0;exitDy=0;entryPerimeter=0;" edge="1" parent="1" target="YBJWxwVIaJy569N44Aqp-12">
          <mxGeometry width="50" height="50" relative="1" as="geometry">
            <mxPoint x="347.2555240897125" y="307.44136799013563" as="sourcePoint" />
            <mxPoint x="320" y="335" as="targetPoint" />
          </mxGeometry>
        </mxCell>
        <mxCell id="YBJWxwVIaJy569N44Aqp-35" value="" style="endArrow=classic;html=1;rounded=0;entryX=0.5;entryY=0;entryDx=0;entryDy=0;exitX=0.5;exitY=1;exitDx=0;exitDy=0;" edge="1" parent="1" source="YBJWxwVIaJy569N44Aqp-12">
          <mxGeometry width="50" height="50" relative="1" as="geometry">
            <mxPoint x="335" y="317" as="sourcePoint" />
            <mxPoint x="380" y="300" as="targetPoint" />
          </mxGeometry>
        </mxCell>
        <mxCell id="YBJWxwVIaJy569N44Aqp-36" value="Client RMI" style="ellipse;whiteSpace=wrap;html=1;" vertex="1" parent="1">
          <mxGeometry x="320" y="290" width="120" height="80" as="geometry" />
        </mxCell>
        <mxCell id="YBJWxwVIaJy569N44Aqp-37" value="Service RMI" style="ellipse;whiteSpace=wrap;html=1;" vertex="1" parent="1">
          <mxGeometry x="520" y="290" width="120" height="80" as="geometry" />
        </mxCell>
        <mxCell id="YBJWxwVIaJy569N44Aqp-39" value="" style="endArrow=classic;html=1;rounded=0;exitX=1;exitY=0.5;exitDx=0;exitDy=0;entryX=0;entryY=0.5;entryDx=0;entryDy=0;" edge="1" parent="1" source="YBJWxwVIaJy569N44Aqp-37" target="YBJWxwVIaJy569N44Aqp-38">
          <mxGeometry width="50" height="50" relative="1" as="geometry">
            <mxPoint x="524.9845054927182" y="362.5586320098646" as="sourcePoint" />
            <mxPoint x="810" y="365" as="targetPoint" />
          </mxGeometry>
        </mxCell>
        <mxCell id="YBJWxwVIaJy569N44Aqp-38" value="Base de Donnée" style="ellipse;whiteSpace=wrap;html=1;" vertex="1" parent="1">
          <mxGeometry x="740" y="290" width="120" height="80" as="geometry" />
        </mxCell>
      </root>
    </mxGraphModel>
  </diagram>
</mxfile>
